# xmcd CD database file
#
# Track frame offsets:
#	150
#	25492
#	50030
#	74705
#	84717
#	108795
#	127070
#	141577
#	153270
#	171447
#	189025
#	213890
#	231990
#
# Disc length: 3284 seconds
#
# Revision: 6
# Processed by: cddbd v1.4PL0 Copyright (c) Steve Scherf et al.
# Submitted via: CDex 1.40Release
#
DISCID=c10cd20d
DTITLE=Paul Piche - L'un et L'autre 1
DYEAR=1996
DGENRE=Folklore
TTITLE0=Je lègue à la mer
TTITLE1=L'escalier
TTITLE2=Reste
TTITLE3=À côté de toi
TTITLE4=Car je t'aime
TTITLE5=Avec l'amour
TTITLE6=J'aurai jamais 18 ans
TTITLE7=Le temps d'aimer
TTITLE8=La haine
TTITLE9=Chu pas mal mal parti
TTITLE10=Étrange
TTITLE11=Cette lettre
TTITLE12=Moi j'raconte des histoires
EXTD=YEAR: 1996 ID3G: 115
EXTT0=
EXTT1=
EXTT2=
EXTT3=
EXTT4=
EXTT5=
EXTT6=
EXTT7=
EXTT8=
EXTT9=
EXTT10=
EXTT11=
EXTT12=
PLAYORDER=
